<?xml version="1.0" encoding="UTF-8"?>
<svg xmlns="http://www.w3.org/2000/svg" viewBox="0 560 1549.4 405.2" preserveAspectRatio="xMidYMax meet" role="img" aria-label="Turku skyline over the Aura river currents, from the ESN Abo Akademi flag">
<g fill="none" stroke-linecap="round" stroke-linejoin="round">
    <path d="M -80,760 C 220,690 445,805 720,745 C 1005,680 1240,755 1615,635"
          stroke="#00aeef" stroke-width="34"/>
    <path d="M -65,810 C 245,735 465,850 740,790 C 1020,725 1260,805 1635,682"
          stroke="#ec008c" stroke-width="34"/>
    <path d="M -50,860 C 270,785 485,895 760,835 C 1035,775 1280,855 1655,730"
          stroke="#7ac143" stroke-width="34"/>
    <path d="M -35,910 C 295,835 505,940 780,880 C 1050,825 1300,905 1675,778"
          stroke="#f47b20" stroke-width="34"/>
  </g>
<g id="local-silhouette-parade" fill="#2e3192">
    <!-- A narrow continuous plinth makes the six silhouettes read as one skyline. -->
    <path d="M 65,902 C 390,896 660,906 935,901 C 1165,897 1345,900 1505,892 L 1505,918 C 1325,925 1140,921 935,925 C 655,930 380,920 65,926 Z"/>

    <!-- A flat ESN-orange rising sun belongs to the Naantali harbour vignette. -->
    <circle cx="1165" cy="808" r="55" fill="#f47b20"
            aria-label="Naantali rising sun"/>

    <g aria-label="Turku Cathedral silhouette"
       transform="translate(15 0) translate(165.5 902) scale(.78 .83) translate(-165.5 -902)">
    <!-- nave and lower roofs -->
      <path d="M 96,902 L 96,850 L 118,850 L 125,828 L 144,828 L 144,902 Z"/>
      <path d="M 188,902 L 188,828 L 207,828 L 214,850 L 235,850 L 235,902 Z"/>
    <!-- tower, copper-spire profile, and cross -->
      <rect x="139" y="716" width="53" height="186"/>
      <path d="M 131,716 L 165.5,642 L 200,716 Z"/>
      <rect x="161.5" y="619" width="8" height="28" rx="2"/>
      <rect x="153.5" y="627" width="24" height="7" rx="2"/>
    <!-- paired buttresses -->
      <path d="M 126,902 L 139,774 L 148,774 L 148,902 Z"/>
      <path d="M 183,902 L 183,774 L 192,774 L 205,902 Z"/>
    </g>

    <!--
      Ikituuri: tower only. The stepped upper crown, oval mass, staggered windows,
      curved lower edge and exposed pilotis follow the building's architecture.
    -->
    <g aria-label="TYS Ikituuri tower silhouette"
       transform="translate(0 904) scale(1 1.08) translate(0 -904)">
      <path d="M 341,881 L 341,772 C 341,758 349,748 361,742 L 361,720 C 378,711 402,708 420,715 C 436,721 445,733 445,749 L 445,879 C 420,890 369,891 341,881 Z"/>
      <rect x="356" y="878" width="18" height="28" rx="2"/>
      <rect x="412" y="878" width="18" height="28" rx="2"/>
      <g fill="#ffffff" aria-hidden="true">
        <rect x="353" y="754" width="23" height="8" rx="2"/>
        <rect x="382" y="751" width="25" height="8" rx="2"/>
        <rect x="413" y="754" width="23" height="8" rx="2"/>
        <rect x="350" y="776" width="25" height="8" rx="2"/>
        <rect x="381" y="773" width="24" height="8" rx="2"/>
        <rect x="412" y="776" width="25" height="8" rx="2"/>
        <rect x="349" y="798" width="22" height="8" rx="2"/>
        <rect x="378" y="796" width="27" height="8" rx="2"/>
        <rect x="412" y="798" width="25" height="8" rx="2"/>
        <rect x="349" y="820" width="26" height="8" rx="2"/>
        <rect x="382" y="818" width="22" height="8" rx="2"/>
        <rect x="411" y="820" width="27" height="8" rx="2"/>
        <rect x="350" y="842" width="22" height="8" rx="2"/>
        <rect x="379" y="840" width="27" height="8" rx="2"/>
        <rect x="413" y="842" width="24" height="8" rx="2"/>
        <rect x="352" y="864" width="25" height="8" rx="2"/>
        <rect x="384" y="862" width="22" height="8" rx="2"/>
        <rect x="413" y="864" width="22" height="8" rx="2"/>
      </g>
    </g>
    <!-- Approved Aura swan: smooth vector of the exact user-supplied silhouette. -->
    <svg x="530" y="704" width="176" height="200" viewBox="0 0 176 200"
         aria-label="Aura swan exact silhouette">
      <path d="m 5,186 c 2.1583537,-7.10604 3.869875,-14.43397 6.302762,-21.40368 4.48095,-5.12993 5.181104,-12.26338 7.782359,-18.3894 3.458394,-10.56749 7.213054,-21.01946 11.982509,-31.07579 3.348014,-8.45553 8.25024,-16.403695 9.574326,-25.519931 1.70924,-5.532208 5.955875,-10.055396 7.173714,-15.856468 2.688999,-7.138283 4.641511,-14.667862 7.789853,-21.562096 C 59.477022,48.115272 59.260978,42.092359 61,37 59.791841,34.264936 59.99283,30.120726 56.12775,30.042583 45.412516,34.175163 34.710248,38.71197 24,43 c -2.290596,-3.106748 0.932254,-5.41128 2.472449,-7.960641 2.541319,-3.056704 4.378847,-6.434355 4.873777,-10.424262 0.896364,-3.500657 1.225534,-7.297977 4.31204,-9.653116 2.432112,-3.078706 4.995432,-5.9875859 8.855039,-7.2186335 C 47.530538,6.1626804 50.478696,4.2894049 54.036823,5 58.381355,4.957781 62.79824,4.5398674 66.68512,6.8740479 c 4.580052,1.2595471 8.354437,4.2045301 11.559937,7.5670541 2.086326,4.248317 5.584503,8.061629 5.166104,13.081673 0.468429,3.685931 0.994143,7.38003 -1.070088,10.704814 C 72.560715,63.151726 62.780358,88.075863 53,113 c 4.836411,1.0493 6.384433,-5.15825 10.353991,-6.677 5.925316,-3.05826 11.80382,-6.24009 18.447047,-7.403277 C 86.744116,97.152016 91.856918,96.679478 97.073645,97 c 5.892365,-0.485038 11.608415,0.601216 17.275395,2.124782 6.11035,1.601448 12.68198,1.996788 17.94419,5.815898 5.99631,3.61484 12.8801,6.05312 17.34528,11.69783 2.23496,2.31549 5.16063,4.23992 5.21818,7.78825 -1.02053,2.28399 -4.90363,3.46129 -6.99422,5.3316 C 142.92651,132.5467 138.7903,137.14293 133,138 c -2.21559,2.46335 -4.45877,4.87798 -8,5 -2.92295,4.32128 2.31082,2.76352 5.05523,3 13.64826,0 27.29651,0 40.94477,0 0.069,5.52961 0.38323,11.09356 -1.80213,16.30744 -3.02061,1.39091 -1.51546,4.85209 -3.8025,7.25997 C 162.74439,174.95778 158.14246,178.79613 154,183 c -3.19805,-0.30145 -3.78468,4.27659 -7.2799,3.41985 -1.44521,3.9431 -6.18287,3.4122 -9.46568,4.85826 -5.01752,1.50163 -9.97668,3.39711 -15.30945,2.77152 C 83.296646,194.36642 44.648323,194.68321 6,195 5.6666667,192 5.3333333,189 5,186 Z" fill="#2e3192"/>
    </svg>
    <!--
      Preferred previous Posankka figure isolated from the user-selected Posankka
      Race reference. A dark-blue cover fills the former eye area into the body. The
      reference water and wordmark are not embedded.
    -->
    <g aria-label="Posankka exact review figure with adapted water">
      <svg x="720" y="730" width="396" height="170" viewBox="0 0 240 103">
        <path d="M154.1,0l-0.3,0l-0.7,0c-0.9,0.1-1.8,0.2-2.6,0.3c-1.7,0.3-3.4,0.9-5,1.6c-0.8,0.4-1.6,0.8-2.3,1.2    c-0.7,0.5-1.4,1-2.1,1.6c-1.3,1.1-2.5,2.4-3.5,3.8c-1,1.4-1.8,3-2.3,4.7c-0.5,1.7-0.8,3.4-0.9,5.1c0,5.4,2.3,10.5,6.4,14    c1.3,1.2,2.8,2.2,4.4,3c1.6,0.8,3.3,1.4,5.1,1.9l0,0c0.7,0.2,1.4,0.3,2.1,0.5c0.7,0.1,1.4,0.2,2.2,0.3c1.5,0.1,2.9,0.1,4.4,0    c-1.4,0.3-2.9,0.5-4.4,0.5h0c0.4,0.3,0.8,0.5,1.2,0.8c1,0.8,2,1.6,3,2.5c1.9,1.7,3.6,3.7,5.1,5.8c0.8,1.1,1.4,2.2,2,3.3    c0.3,0.6,0.6,1.2,0.8,1.8c0.2,0.7,0.4,1.4,0.4,2.1c0,0.2,0,0.4,0,0.6c0,0.2-0.1,0.4-0.1,0.6c0,0.1-0.1,0.4-0.2,0.5    c-0.1,0.2-0.1,0.4-0.2,0.5c-0.4,0.8-1,1.4-1.8,1.7c-0.7,0.3-1.5,0.4-2.2,0.4c-0.7,0-1.4-0.1-2.1-0.3l-0.1,0l-0.1,0    c-5.3-2.2-10.9-3.7-16.6-4.5c-1.4-0.2-2.8-0.4-4.3-0.5c-1.4-0.1-2.9-0.3-4.3-0.3c-1.4,0-2.8,0-4.3,0.1c-1.4,0.1-2.8,0.3-4.3,0.5    c-5.7,1-11.2,2.7-16.3,5.2c-5.2,2.4-10,5.6-14.2,9.5l0,0l0,0c0,0-0.5,0.4-1.1,1c-1.2,0.8-2.6,1.3-4,1.5c-0.1,0-0.1,0-0.2,0v0    c-1.1,0.1-2.1,0.2-3.2,0.2c-1.6,0.1-3.2-0.1-4.8-0.6c-0.9-0.2-1.7-0.5-2.5-0.9c-0.9-0.4-1.7-0.8-2.5-1.2c-0.1-0.1-0.2-0.1-0.3-0.2    c0,0-0.1,0.1-0.1,0.1c-0.7,0.9-1.5,1.8-2.4,2.7c2.2,1.4,4.5,2.7,6.9,3.6c1.6,0.7,3.3,1.2,5,1.7l0,0l0.9-1c0.2-0.2,0.3-0.3,0.4-0.4    l0.3-0.4c0,0,0.3,1,0.1,1.3c-0.2,0.3-1,0.9-1.3,1.4c-1.1,1.3-2.1,2.8-3,4.2c-1.1,1.6-1.9,3.4-2.5,5.2c-0.4,1.3-0.6,2.6-0.8,3.9    c-0.2,1.3-0.1,2.7,0,4c0.2,1.3,0.5,2.6,1.1,3.7c0.1,0.3,0.3,0.5,0.5,0.8l0.1,0.2l0,0l0,0l0.1,0.1l0,0.1c4.9,0.7,10.2-0.7,13.4-4.5    c6.6-7.6,19.6-7.6,26.2,0c5.4,6.3,16.5,6.3,22,0c6.6-7.6,19.6-7.6,26.2,0c1.3,1.5,3,2.7,4.8,3.5c0.4-0.6,0.7-1.2,1-1.9    c0.7-1.6,1.1-3.3,1.3-5.1c0.2-1.6,0.2-3.2,0-4.8c-0.2-1.4-0.5-2.7-0.9-4c-0.3-1-0.7-2-1.1-3c-0.4-0.8-0.7-1.4-0.9-1.9l-0.3-0.7    l0.4,0.6c0.3,0.4,0.7,1,1.1,1.8c1.1,1.8,1.9,3.8,2.5,5.9l0.1-0.1l0.7-0.8c5.5-7,8-15.9,6.9-24.7c-1.6-8.9-7.5-18-7.5-18    s-1.1-2.1-1.4-2.7c-0.3-0.6-0.5-1.3-0.7-2c-0.4-1.4-0.5-2.9-0.2-4.3c0.3-1.5,1.4-3.2,2.6-3.6l0.2-0.1c0.3-0.2,6.7-2.4,9.9-4    c3.2-1.6,6.3-3.3,9.5-5l0.1,0l0.1,0l0.5-0.2l0.3-0.1l0.1,0c0,0,0.1,0,0.1,0c0.1,0,0.1-0.1,0.2-0.1c0.1,0,0.1-0.1,0.2-0.1    c0.1-0.1,0.2-0.2,0.3-0.3c0.4-0.3,0.5-0.9,0.4-1.4l0,0c0-0.1-0.1-0.2-0.1-0.2l0,0l0,0l-6.4-11.3c-0.3-0.5-0.5-1-0.8-1.4    c-0.2-0.4-0.5-0.8-0.9-1.2c-0.3-0.3-0.6-0.6-1-0.8c-0.4-0.1-0.8-0.1-1.1,0.1c-0.1,0-0.2,0.1-0.3,0.1c-0.1,0.1-0.2,0.1-0.3,0.2    c-0.2,0.1-0.3,0.3-0.5,0.4c-0.3,0.4-0.4,0.8-0.5,1.2c-0.1,1,0,1.9,0.4,2.8l0.7,1.7l-1.5-1.1c-0.4-0.3-0.9-0.4-1.3-0.4h-0.2H187    l-0.1,0c-0.1,0-0.2,0-0.4,0c-0.2,0-0.4,0.1-0.7,0.2c-0.4,0.2-0.7,0.5-0.9,0.9c-0.2,0.8-0.3,1.7-0.2,2.6c-0.6-0.5-1.3-1-2-1.3    c-0.2-0.1-0.4-0.1-0.6-0.1h-0.1h-0.2c-0.1,0-0.2,0-0.3,0c-1.9,0.3-2,2.7-2,2.7s-0.5-1.6-1.5-1.9c-0.2-0.1-0.4-0.1-0.6-0.2    c-0.1,0-0.1,0-0.2,0c0,0-0.1,0-0.2,0c-0.1,0-0.2,0-0.3,0c-0.8,0.1-1.5,1.5-1.8,2.6c0,0.5,0,1,0.1,1.7c-0.3-1.8-1-3.6-1.8-5.2    c-0.9-1.6-2-3.1-3.3-4.4c-1.3-1.3-2.7-2.4-4.2-3.4c-1.5-0.9-3.2-1.7-4.9-2.2c-1.7-0.6-3.4-0.9-5.2-1l-1.3,0l-0.2,0    C154.3,0,154.2,0,154.1,0z M157.3,3.5L157.3,3.5c1.8-1.2,7.4-0.7,10.2,2.2c0.1,0,0.1,0.1,0.2,0.1c1.8,1.1,2.9,3.2,2.8,5.3    c0,0.4,0,0.7-0.3,1c-0.5,0.3-1.2,0.4-1.7,0.1c-1.8-0.8-3.6-1.7-5.4-2.7c-2-1.1-4-2.3-5.1-3C156,5.2,156.5,4,157.3,3.5z" fill="#2e3192" />
		
        <path d="M54.8,69.4c0.5,0.2,1.1,0.4,1.7,0.5c0.5,0.1,1.1,0.2,1.7,0.1c1.1-0.1,2.2-0.5,3.1-1.1h0    c1-0.7,1.8-1.6,2.4-2.6c0.7-1,1.2-2.1,1.6-3.3c0.4-1.1,0.7-2.3,0.7-3.6c0.1-1.1-0.5-2.2-1.5-2.8c-0.5-0.2-1-0.2-1.5,0    c-0.5,0.2-0.9,0.6-1.2,1.1c-0.6,1-1,2.2-0.9,3.4c0,1.2,0.1,2.3,0.4,3.5c0.7-0.9,1.2-1.9,1.5-3.1c0.1-0.4,0.1-0.9,0.1-1.4    c0-0.2,0-0.3,0-0.5c0.1,0.2,0.1,0.3,0.1,0.5c0.1,0.5,0.1,0.9,0.1,1.4c-0.2,1.8-1,3.5-2.4,4.8c-0.5,0.5-1,0.8-1.7,1    c-0.7,0.2-1.4,0.3-2.1,0.2c-1.5-0.2-3-0.6-4.4-1.2c-1.5-0.6-3.1-1.2-4.7-1.7c-1.7-0.5-3.6-0.6-5.3-0.5c-1,0.1-1.9,0.3-2.9,0.5    c-0.1,0-0.3,0.1-0.3,0.1c0,0,0,0-0.1,0c0,0.1-0.1,0.1,0,0.2c0.1,0.5,0.3,1,0.4,1.5l0.1,0.4l0,0.1c0,0,0.1,0,0.1,0    c0.5-0.2,1.1-0.3,1.6-0.5c0.6-0.1,1.1-0.2,1.7-0.3l0.8-0.1h0.9c2.4,0.2,4.7,0.9,6.8,2C52.6,68.6,53.7,69.1,54.8,69.4z" fill="#2e3192" />
		
        <path d="M64.5,67.1c-0.5,0.7-1,1.4-1.7,2c0.4,0.9,1,1.8,1.7,2.5c0.8,0.9,1.8,1.5,2.9,1.7c1.1,0.2,2.3,0,3.4-0.5    c2.2-1.1,4-2.7,5.4-4.7c1.4-1.9,2.6-4.1,3.4-6.3c0.2-0.5,0.4-1.1,0.5-1.7c0.1-0.5,0.2-1.1,0.2-1.7c0.1-1.1-0.2-2.2-0.6-3.1    c-0.8-1.9-3-2.7-4.9-1.8c0,0-0.1,0-0.1,0c-1.8,0.8-3.2,2.6-4.1,4.3c-1,1.6-1.5,3.5-1.4,5.5c0.2,1.7,0.8,3.3,1.9,4.7    c0.4-0.5,0.9-1.1,1.3-1.6l0.6-0.9l0.3-0.5c-0.4-0.7-0.6-1.4-0.7-2.2c0-0.8,0.1-1.6,0.4-2.3c0.4-1.1,1.1-2,1.9-2.9    c0.3-0.3,0.5-0.5,0.8-0.8c0-0.2-0.1-0.4-0.2-0.6c-0.1-0.2-0.1-0.3-0.1-0.3c0.1,0.1,0.1,0.1,0.2,0.2c0.2,0.2,0.3,0.4,0.4,0.6    c0.2,0.4,0.3,0.8,0.3,1.2c0.1,0.5,0,1,0,1.5c-0.1,0.6-0.2,1.2-0.3,1.8c-0.2,0.6-0.4,1.3-0.7,1.9c-0.3,0.6-0.6,1.3-1,1.9l-0.6,0.9    l-0.6,0.9c-0.4,0.6-0.8,1.2-1.3,1.8c-0.5,0.6-1.1,1.1-1.8,1.5c-0.7,0.4-1.5,0.5-2.3,0.3c-0.7-0.2-1.3-0.6-1.8-1.1    C65.3,68.9,64.8,68,64.5,67.1C64.5,67.1,64.5,67.1,64.5,67.1z" fill="#2e3192" />
		
        <path d="M158,6.4c1.1,0.7,3.1,1.9,5.1,3c-0.5-0.3-1-0.6-1.5-0.9c-0.7-0.4-0.9-1.3-0.5-2c0.1-0.2,0.3-0.4,0.5-0.5l0,0    c0.5-0.3,1-0.6,1.5-0.7c0.6-0.2,1.3-0.3,2-0.3c0.7,0,1.5,0.1,2.1,0.5c0.1,0,0.2,0.1,0.3,0.1c-2.8-2.9-8.3-3.4-10.2-2.2v0    C156.5,4,156,5.2,158,6.4z" fill="#ffffff" />
		
        <path d="M168.5,7.1c0,0-0.1,0-0.1,0c0.1,0.3,0.2,0.5,0.1,0.7c-0.3,0.4-1.1,0.4-1.9-0.1c-0.7-0.4-1.1-1-1.1-1.5    c-1.3-0.3-2.5-0.5-3-0.2c0.4,1.3,4.6,4.6,5,5.5c-1-0.3-2.7-1.2-4.3-2.1c1.7,1,3.5,1.9,5.4,2.7c0.6,0.2,1.2,0.2,1.7-0.1    c0.3-0.3,0.3-0.6,0.3-1c0.1-2.1-1-4.2-2.8-5.3c-0.1,0-0.1-0.1-0.2-0.1C167.9,6.1,168.2,6.5,168.5,7.1z" fill="#2e3192" />
		
        <path d="M165.1,5.1c-0.7,0-1.4,0.1-2,0.3c-0.5,0.2-1,0.4-1.5,0.7l0,0c-0.2,0.1-0.4,0.3-0.5,0.5    c-0.4,0.7-0.2,1.6,0.5,2c0.5,0.3,1,0.6,1.5,0.9c1.7,0.9,3.3,1.8,4.3,2.1c-0.4-0.9-4.6-4.1-5-5.5c0.5-0.3,1.7-0.1,3,0.2    c0-0.1,0-0.1,0.1-0.2c0.3-0.4,1.1-0.4,1.9,0.1c0.4,0.3,0.8,0.6,1,0.9c0.1,0,0.1,0,0.1,0c-0.3-0.5-0.6-1-1.1-1.5    c-0.1,0-0.2-0.1-0.3-0.1C166.5,5.2,165.8,5,165.1,5.1z" fill="#2e3192" />
		
        <path d="M166.5,7.7c0.8,0.5,1.7,0.5,1.9,0.1c0.1-0.2,0.1-0.5-0.1-0.7c-0.5-0.1-1.7-0.5-3-0.8    C165.3,6.7,165.8,7.3,166.5,7.7z" fill="#ffffff" />
		
        <path d="M167.4,6.1c-0.8-0.5-1.7-0.5-1.9-0.1c0,0.1-0.1,0.1-0.1,0.2c1.2,0.3,2.5,0.7,3,0.8    C168.2,6.7,167.9,6.4,167.4,6.1z" fill="#ffffff" />
		
        <!-- Eye area filled into the silhouette using the exact body colour. -->
        <ellipse cx="164.5" cy="7.2" rx="9" ry="5.3"
                 transform="rotate(27 164.5 7.2)" fill="#2e3192"/>
      </svg>
      <!-- A short ESN-blue crest integrates Posankka with the existing waterline. -->
      <path d="M 770,894
               C 785,877 800,877 815,894
               C 830,911 845,911 860,894
               C 875,877 890,877 905,894
               C 920,911 935,911 950,894
               C 965,877 980,877 995,894
               C 1010,911 1025,911 1040,894
               C 1055,877 1070,877 1085,894"
            fill="none" stroke="#00aeef" stroke-width="16"
            stroke-linecap="round" stroke-linejoin="round"/>
    </g>

    <!--
      Rights-safe Naantali harbour cluster: two original old-town gables, a
      simplified profile of Naantali Church's Baroque clock tower, and one sail.
    -->
    <g aria-label="Naantali church old town and archipelago sailboat silhouette"
       transform="translate(0 904) scale(1 .88) translate(0 -904)">
      <!-- old-town wooden gables -->
      <path d="M 1062,904 L 1062,850 L 1090,829 L 1118,850 L 1118,904 Z"/>
      <path d="M 1108,904 L 1108,842 L 1141,817 L 1174,842 L 1174,904 Z"/>
      <g fill="#ffffff" aria-hidden="true">
        <rect x="1077" y="861" width="12" height="18" rx="2"/>
        <rect x="1124" y="853" width="12" height="18" rx="2"/>
        <rect x="1144" y="853" width="12" height="18" rx="2"/>
      </g>

      <!-- Naantali Church tower: broad clock roof, open lantern and tiered spire. -->
      <rect x="1164" y="812" width="61" height="94"/>
      <path d="M 1156,812 C 1160,789 1171,775 1184,768 L 1205,768 C 1218,775 1229,789 1233,812 Z"/>
      <rect x="1171" y="738" width="47" height="36" rx="3"/>
      <path d="M 1165,738 L 1173,724 L 1178,710 L 1194.5,696 L 1211,710 L 1216,724 L 1224,738 Z"/>
      <path d="M 1183,696 L 1194.5,677 L 1206,696 Z"/>
      <rect x="1191.5" y="667" width="6" height="14" rx="2"/>
      <g fill="#ffffff" aria-hidden="true">
        <rect x="1177" y="744" width="8" height="22" rx="2"/>
        <rect x="1190" y="744" width="9" height="22" rx="2"/>
        <rect x="1204" y="744" width="8" height="22" rx="2"/>
        <circle cx="1194.5" cy="795" r="9"/>
      </g>

      <!-- original archipelago sailboat -->
      <path d="M 1238,892 C 1252,898 1272,898 1288,891 L 1282,904 L 1246,904 Z"/>
      <rect x="1260" y="823" width="5" height="72" rx="2"/>
      <path d="M 1257,828 L 1257,880 L 1227,880 Z"/>
      <path d="M 1268,833 L 1268,881 L 1292,881 Z"/>
    </g>

    <g aria-label="Turku Castle silhouette" transform="translate(-8 31)">
    <!-- west tower -->
      <path d="M 1317,875 L 1317,748 L 1328,748 L 1328,733 L 1341,733 L 1341,748 L 1354,748 L 1354,733 L 1367,733 L 1367,748 L 1378,748 L 1378,875 Z"/>
    <!-- central curtain wall and battlements -->
      <path fill-rule="evenodd" d="M 1365,875 L 1365,790 L 1379,790 L 1379,775 L 1393,775 L 1393,790 L 1408,790 L 1408,775 L 1422,775 L 1422,790 L 1437,790 L 1437,775 L 1451,775 L 1451,875 Z M 1396,875 L 1421,875 L 1421,847 C 1421,830 1396,830 1396,847 Z"/>
    <!-- east tower -->
      <path d="M 1438,875 L 1438,720 L 1449,720 L 1449,705 L 1462,705 L 1462,720 L 1475,720 L 1475,705 L 1488,705 L 1488,720 L 1499,720 L 1499,875 Z"/>
    </g>
  </g>
</svg>
